<?xml version="1.0" encoding="UTF-8"?>
<svg version="1.1" xmlns="http://www.w3.org/2000/svg" width="96" height="96">
<path d="M0 0 C0.99773438 -0.01546875 1.99546875 -0.0309375 3.0234375 -0.046875 C10.23091004 -0.00822903 10.23091004 -0.00822903 13.671875 2.265625 C15.80916355 5.86129867 15.27436774 8.38448388 15 12.5 C16.53720703 12.43039063 16.53720703 12.43039063 18.10546875 12.359375 C19.46611656 12.32183989 20.82679605 12.28544159 22.1875 12.25 C22.86103516 12.21648438 23.53457031 12.18296875 24.22851562 12.1484375 C27.89041975 12.07698571 29.82150622 12.38465822 32.92578125 14.390625 C35.8670065 17.38170153 36.12883817 18.977476 36.17700195 23.05395508 C36.19625481 24.47101494 36.19625481 24.47101494 36.21589661 25.91670227 C36.22328354 26.94063583 36.23067047 27.9645694 36.23828125 29.01953125 C36.246353 30.07025314 36.25442474 31.12097504 36.26274109 32.20353699 C36.27658815 34.43035224 36.28730751 36.65718877 36.29516602 38.8840332 C36.31237781 42.28833276 36.35625913 45.6916611 36.40039062 49.09570312 C36.41051745 51.25780535 36.41903358 53.41991584 36.42578125 55.58203125 C36.44328934 56.59989212 36.46079742 57.61775299 36.47883606 58.66645813 C36.45711705 65.75003225 36.45711705 65.75003225 34.09838867 69.61987305 C30.74822238 72.62157527 28.7683344 72.63538258 24.34448242 72.67700195 C23.15952682 72.68983719 21.97457123 72.70267242 20.75370789 72.71589661 C19.46728897 72.72328354 18.18087006 72.73067047 16.85546875 72.73828125 C15.53839432 72.746353 14.22131989 72.75442474 12.86433411 72.76274109 C10.07256193 72.77776861 7.28081521 72.78760613 4.48901367 72.79516602 C0.91776696 72.80622376 -2.6528555 72.84061556 -6.22388172 72.88033772 C-9.63490655 72.91281378 -13.04586375 72.91728368 -16.45703125 72.92578125 C-18.37755058 72.95204338 -18.37755058 72.95204338 -20.33686829 72.97883606 C-21.53128036 72.97591049 -22.72569244 72.97298492 -23.95629883 72.9699707 C-25.00505692 72.97583694 -26.053815 72.98170319 -27.13435364 72.98774719 C-30.72870981 72.37596998 -32.3953847 70.99834308 -35 68.5 C-36.19201771 66.11596458 -36.14555687 64.60748883 -36.17700195 61.94604492 C-36.18983719 61.00133835 -36.20267242 60.05663177 -36.21589661 59.08329773 C-36.22328354 58.05936417 -36.23067047 57.0354306 -36.23828125 55.98046875 C-36.246353 54.92974686 -36.25442474 53.87902496 -36.26274109 52.79646301 C-36.27658815 50.56964776 -36.28730751 48.34281123 -36.29516602 46.1159668 C-36.31237781 42.71166724 -36.35625913 39.3083389 -36.40039062 35.90429688 C-36.41051745 33.74219465 -36.41903358 31.58008416 -36.42578125 29.41796875 C-36.44328934 28.40010788 -36.46079742 27.38224701 -36.47883606 26.33354187 C-36.45711705 19.24996775 -36.45711705 19.24996775 -34.09838867 15.38012695 C-30.35092528 12.02245207 -27.1827655 12.3798423 -22.375 12.4375 C-21.31539062 12.44426758 -21.31539062 12.44426758 -20.234375 12.45117188 C-18.48954725 12.46296125 -16.744763 12.48089676 -15 12.5 C-15.12375 10.64375 -15.12375 10.64375 -15.25 8.75 C-15.43757693 5.93634599 -15.12694857 4.7135723 -13.671875 2.265625 C-9.38060681 -0.57012532 -5.02427251 -0.0778957 0 0 Z M-7 8.5 C-7 9.82 -7 11.14 -7 12.5 C-2.38 12.5 2.24 12.5 7 12.5 C7 11.18 7 9.86 7 8.5 C2.38 8.5 -2.24 8.5 -7 8.5 Z " fill="#FEA401" transform="translate(48,8.5)"/>
<path d="M0 0 C0.33 0 0.66 0 1 0 C1.0992011 4.32326033 1.17162265 8.64591024 1.21972656 12.9699707 C1.23978825 14.43948921 1.26704478 15.90892841 1.30175781 17.37817383 C1.35052141 19.49580487 1.37302161 21.61237687 1.390625 23.73046875 C1.4220459 25.63928833 1.4220459 25.63928833 1.45410156 27.58666992 C0.92319536 31.57731488 -0.18928487 33.17915793 -3 36 C-5.65219743 37.32609872 -7.6854077 37.14905931 -10.65551758 37.17700195 C-11.84047318 37.18983719 -13.02542877 37.20267242 -14.24629211 37.21589661 C-15.53271103 37.22328354 -16.81912994 37.23067047 -18.14453125 37.23828125 C-19.46160568 37.246353 -20.77868011 37.25442474 -22.13566589 37.26274109 C-24.92743807 37.27776861 -27.71918479 37.28760613 -30.51098633 37.29516602 C-34.08223304 37.30622376 -37.6528555 37.34061556 -41.22388172 37.38033772 C-44.63490655 37.41281378 -48.04586375 37.41728368 -51.45703125 37.42578125 C-53.37755058 37.45204338 -53.37755058 37.45204338 -55.33686829 37.47883606 C-56.53128036 37.47591049 -57.72569244 37.47298492 -58.95629883 37.4699707 C-60.00505692 37.47583694 -61.053815 37.48170319 -62.13435364 37.48774719 C-65.72870981 36.87596998 -67.3953847 35.49834308 -70 33 C-71.38226016 30.23547967 -71.09525387 27.9538637 -71.0625 24.875 C-71.05347656 23.77929688 -71.04445313 22.68359375 -71.03515625 21.5546875 C-71.02355469 20.71164063 -71.01195313 19.86859375 -71 19 C-69.02 18.34 -67.04 17.68 -65 17 C-64.67 13.7 -64.34 10.4 -64 7 C-63.28447464 6.99413376 -62.56894928 6.98826752 -61.83174133 6.98222351 C-55.07837574 6.92424536 -48.32532465 6.85213964 -41.57227802 6.76428509 C-38.10069934 6.71961627 -34.62923706 6.68035293 -31.1574707 6.65356445 C-27.1632744 6.62250545 -23.16970632 6.56771812 -19.17578125 6.51171875 C-17.93290848 6.50532883 -16.69003571 6.4989389 -15.40950012 6.49235535 C-14.24867416 6.47256119 -13.08784821 6.45276703 -11.8918457 6.43237305 C-10.36295464 6.41571846 -10.36295464 6.41571846 -8.80317688 6.39872742 C-5.52644261 5.9326406 -3.63017161 4.99034725 -1 3 C-0.67 2.01 -0.34 1.02 0 0 Z " fill="#BC6200" transform="translate(83,44)"/>
<path d="M0 0 C0.99773438 -0.01546875 1.99546875 -0.0309375 3.0234375 -0.046875 C10.23091004 -0.00822903 10.23091004 -0.00822903 13.671875 2.265625 C15.80916355 5.86129867 15.27436774 8.38448388 15 12.5 C12.36 12.5 9.72 12.5 7 12.5 C7 11.18 7 9.86 7 8.5 C2.38 8.5 -2.24 8.5 -7 8.5 C-7 9.82 -7 11.14 -7 12.5 C-3.7 12.5 -0.4 12.5 3 12.5 C1.52815638 18.14206719 1.52815638 18.14206719 -0.72558594 19.66943359 C-3.45180915 20.66499085 -5.74001222 20.82148975 -8.640625 20.9140625 C-10.24550781 20.97207031 -10.24550781 20.97207031 -11.8828125 21.03125 C-12.99398437 21.0621875 -14.10515625 21.093125 -15.25 21.125 C-16.37664063 21.16367187 -17.50328125 21.20234375 -18.6640625 21.2421875 C-21.44254548 21.33637336 -24.22102334 21.42199586 -27 21.5 C-27.04487549 22.36278564 -27.08975098 23.22557129 -27.13598633 24.11450195 C-27.30934124 27.31886921 -27.49525676 30.52219027 -27.68969727 33.7253418 C-27.77123283 35.11112226 -27.8477725 36.49720616 -27.91918945 37.88354492 C-28.02278181 39.87751928 -28.1459064 41.87044859 -28.26953125 43.86328125 C-28.33760986 45.06251221 -28.40568848 46.26174316 -28.47583008 47.49731445 C-29 50.5 -29 50.5 -30.2956543 52.35229492 C-32.18807226 53.62664771 -33.76217956 54.11416889 -36 54.5 C-36.0990984 49.46465764 -36.1715758 44.42988658 -36.21972656 39.39379883 C-36.23980505 37.68178414 -36.26707392 35.96983772 -36.30175781 34.25805664 C-36.35044401 31.79295992 -36.37300573 29.3287721 -36.390625 26.86328125 C-36.41127014 26.10163162 -36.43191528 25.33998199 -36.45318604 24.55525208 C-36.45475467 20.81508391 -36.14053729 18.71902502 -34.10058594 15.53979492 C-30.41627535 11.96210838 -27.25683281 12.37895403 -22.375 12.4375 C-21.31539062 12.44426758 -21.31539062 12.44426758 -20.234375 12.45117188 C-18.48954725 12.46296125 -16.744763 12.48089676 -15 12.5 C-15.12375 10.64375 -15.12375 10.64375 -15.25 8.75 C-15.43757693 5.93634599 -15.12694857 4.7135723 -13.671875 2.265625 C-9.38060681 -0.57012532 -5.02427251 -0.0778957 0 0 Z " fill="#FEBE4B" transform="translate(48,8.5)"/>
<path d="M0 0 C2.55395246 0.01071861 5.10720172 0.00005963 7.66113281 -0.01269531 C26.11258604 -0.03158206 26.11258604 -0.03158206 31.55957031 2.26074219 C32.21957031 3.25074219 32.87957031 4.24074219 33.55957031 5.26074219 C28.05800627 10.76230623 17.47344568 9.50635804 10.16552734 9.53649902 C8.48339171 9.53494119 6.801256 9.52988526 5.11914062 9.52148438 C2.56518816 9.51076576 0.01193891 9.52142475 -2.54199219 9.53417969 C-20.99344541 9.55306644 -20.99344541 9.55306644 -26.44042969 7.26074219 C-27.10042969 6.27074219 -27.76042969 5.28074219 -28.44042969 4.26074219 C-22.1123175 -2.06737 -8.35018748 -0.04170282 0 0 Z " fill="#000000" transform="translate(45.4404296875,86.7392578125)"/>
<path d="M0 0 C3.12740787 2.0612461 4.33498308 3.35356975 5.75 6.8125 C6.3853519 12.95423503 6.3853519 12.95423503 4.50024414 15.50073242 C2.3033606 17.14724592 1.09639775 17.18636551 -1.62890625 17.17578125 C-2.46744141 17.17513672 -3.30597656 17.17449219 -4.16992188 17.17382812 C-5.47799805 17.1496582 -5.47799805 17.1496582 -6.8125 17.125 C-7.68841797 17.12822266 -8.56433594 17.13144531 -9.46679688 17.13476562 C-15.98291319 17.07958681 -15.98291319 17.07958681 -18.25 14.8125 C-18.68340201 9.52499551 -18.76548553 6.05532736 -15.25 1.8125 C-10.36969453 -2.11885718 -5.77218346 -2.10906704 0 0 Z " fill="#9C34BE" transform="translate(54.25,52.1875)"/>
<path d="M0 0 C1.32 0 2.64 0 4 0 C4.10864945 2.06132142 4.18588321 4.12431321 4.25 6.1875 C4.29640625 7.33605469 4.3428125 8.48460938 4.390625 9.66796875 C3.9249943 13.63979862 2.77629613 15.18771485 0 18 C-3.01213029 19.50606515 -6.11282622 19.12160331 -9.4140625 19.09765625 C-10.14370209 19.0962413 -10.87334167 19.09482635 -11.62509155 19.09336853 C-13.95843585 19.08776531 -16.29168464 19.07521235 -18.625 19.0625 C-20.20572778 19.05748541 -21.78645707 19.05292243 -23.3671875 19.04882812 C-27.24482854 19.03779484 -31.12239807 19.02052811 -35 19 C-34.44113122 15.75856105 -33.70952784 13.94430954 -31 12 C-28.50390625 11.61523438 -28.50390625 11.61523438 -25.5625 11.59375 C-24.50289062 11.57183594 -23.44328125 11.54992187 -22.3515625 11.52734375 C-19 11.5 -19 11.5 -15.6484375 11.47265625 C-14.58882812 11.45074219 -13.52921875 11.42882812 -12.4375 11.40625 C-11.46683594 11.39916016 -10.49617188 11.39207031 -9.49609375 11.38476562 C-6.58159204 10.93550362 -5.7278322 10.34688036 -4 8 C-3.30899447 6.00827818 -2.64097297 4.00838196 -2 2 C-1.34 1.34 -0.68 0.68 0 0 Z " fill="#A15400" transform="translate(80,62)"/>
<path d="M0 0 C0.99773438 -0.01546875 1.99546875 -0.0309375 3.0234375 -0.046875 C10.23091004 -0.00822903 10.23091004 -0.00822903 13.671875 2.265625 C15.80916355 5.86129867 15.27436774 8.38448388 15 12.5 C12.36 12.5 9.72 12.5 7 12.5 C7 11.18 7 9.86 7 8.5 C2.38 8.5 -2.24 8.5 -7 8.5 C-7 9.82 -7 11.14 -7 12.5 C-9.64 12.5 -12.28 12.5 -15 12.5 C-15.47954866 5.3067701 -15.47954866 5.3067701 -13.671875 2.265625 C-9.38060681 -0.57012532 -5.02427251 -0.0778957 0 0 Z " fill="#9D33C2" transform="translate(48,8.5)"/>
<path d="M0 0 C2.69990662 1.79993774 4.5418865 3.083773 6 6 C6.43023798 9.87214182 6.31669086 11.52496371 4.125 14.8125 C1.61855093 17.39266816 0.74538327 17.91717964 -2.8125 18.3125 C-6.7307645 17.92835642 -8.21293267 16.70743683 -11 14 C-12.42662219 11.14675563 -12.31033868 9.16545451 -12 6 C-8.54235344 0.81353016 -6.24330406 -0.61208863 0 0 Z " fill="#9E37BC" transform="translate(51,30)"/>
<path d="M0 0 C1.32 1.65 2.64 3.3 4 5 C4.99 5.66 5.98 6.32 7 7 C7.66390041 13.97095436 7.66390041 13.97095436 5.75 16.9375 C4 18 4 18 0 19 C0 12.73 0 6.46 0 0 Z " fill="#D1914B" transform="translate(12,44)"/>
<path d="M0 0 C0.90105469 0.02707031 1.80210938 0.05414062 2.73046875 0.08203125 C3.76107422 0.13423828 3.76107422 0.13423828 4.8125 0.1875 C4.8125 1.5075 4.8125 2.8275 4.8125 4.1875 C2.1725 4.5175 -0.4675 4.8475 -3.1875 5.1875 C-3.5175 7.8275 -3.8475 10.4675 -4.1875 13.1875 C-5.5075 13.1875 -6.8275 13.1875 -8.1875 13.1875 C-8.26871924 11.58417209 -8.32679134 9.97965974 -8.375 8.375 C-8.40980469 7.48167969 -8.44460938 6.58835937 -8.48046875 5.66796875 C-8.1875 3.1875 -8.1875 3.1875 -7 1.375 C-4.55672469 -0.22576658 -2.89489128 -0.11278797 0 0 Z " fill="#FFFDFA" transform="translate(24.1875,24.8125)"/>
</svg>
